<?xml version="1.0" encoding="UTF-8" standalone="no"?>
<svg
   xmlns:dc="http://purl.org/dc/elements/1.1/"
   xmlns:cc="http://creativecommons.org/ns#"
   xmlns:rdf="http://www.w3.org/1999/02/22-rdf-syntax-ns#"
   xmlns:svg="http://www.w3.org/2000/svg"
   xmlns="http://www.w3.org/2000/svg"
   xmlns:sodipodi="http://sodipodi.sourceforge.net/DTD/sodipodi-0.dtd"
   xmlns:inkscape="http://www.inkscape.org/namespaces/inkscape"
   version="1.1"
   id="Layer_1"
   x="0px"
   y="0px"
   width="90px"
   height="90px"
   viewBox="0 0 90 90"
   enable-background="new 0 0 90 90"
   xml:space="preserve"
   inkscape:version="0.48.5 r10040"
   sodipodi:docname="logcolor.svg"><metadata
     id="metadata143"><rdf:RDF><cc:Work
         rdf:about=""><dc:format>image/svg+xml</dc:format><dc:type
           rdf:resource="http://purl.org/dc/dcmitype/StillImage" /><dc:title></dc:title></cc:Work></rdf:RDF></metadata><defs
     id="defs141" /><sodipodi:namedview
     pagecolor="#ffffff"
     bordercolor="#666666"
     borderopacity="1"
     objecttolerance="10"
     gridtolerance="10"
     guidetolerance="10"
     inkscape:pageopacity="0"
     inkscape:pageshadow="2"
     inkscape:window-width="1017"
     inkscape:window-height="782"
     id="namedview139"
     showgrid="false"
     inkscape:zoom="16.595337"
     inkscape:cx="78.021626"
     inkscape:cy="69.266082"
     inkscape:window-x="319"
     inkscape:window-y="0"
     inkscape:window-maximized="0"
     inkscape:current-layer="g4087" /><g
     id="g3993"
     transform="translate(-32.585756,7.7591951)"><g
       id="g3"
       transform="translate(30.990703,-5.5340541)"><g
         id="g5"><path
           id="path7"
           d="m 58.721,46.906 c -0.064,0.055 -0.143,0.123 -0.204,0.175 l 0.006,-0.024 c -0.43,0.316 -0.898,0.506 -1.401,0.506 -2.127,0 -3.73,-3.058 -3.73,-7.114 0,-4.002 1.562,-7.028 3.647,-7.107 v -0.003 c 2.454,-0.272 4.396,-0.671 5.979,-1.158 V 16.06 c -1.459,0.83 -4.045,1.77 -8.452,2.937 -5.6,1.483 -7.882,1.787 -9.585,1.787 -0.944,0 -1.688,-0.1 -2.549,-0.215 -1.146,-0.154 -2.444,-0.329 -4.691,-0.329 -0.583,0.015 -1.173,0.023 -1.753,0.023 -6.929,0 -12.615,-1.067 -15.219,-2.756 L 20.786,75 l 0.052,0.441 c 0.007,0.062 0.025,0.116 0.058,0.172 0.757,1.312 5.897,3.157 14.958,3.157 0.594,0 1.203,-0.008 1.825,-0.024 10e-4,0 0.002,0 0.003,0 2.373,0 3.79,0.189 4.929,0.342 0.822,0.109 1.509,0.201 2.332,0.201 1.865,0 4.519,-0.502 9.159,-1.731 3.487,-0.924 7.383,-1.817 8.914,-2.558 V 43.177 c -1.456,1.245 -3.047,2.661 -4.15,3.604 -0.047,0.047 -0.096,0.083 -0.145,0.125 z"
           inkscape:connector-curvature="0"
           style="fill:none" /></g><g
         id="g9"><path
           id="path11"
           d="m 35.89,18.602 c 0.595,0 1.204,-0.008 1.827,-0.024 h 0.007 0.009 c 2.362,0 3.78,0.19 4.918,0.343 0.807,0.108 1.498,0.201 2.328,0.201 1.863,0 4.518,-0.502 9.159,-1.732 7.225,-1.914 8.599,-3.009 8.855,-3.321 -0.446,-0.384 -3.452,-1.866 -23.183,-1.866 l -1.226,-0.005 c -12.629,0 -17.044,1.811 -17.662,2.881 -0.068,0.119 -0.084,0.204 0.012,0.37 0.757,1.308 5.897,3.153 14.956,3.153 z"
           inkscape:connector-curvature="0"
           style="fill:none" /></g><g
         id="g13"><path
           id="path15"
           d="m 77.976,14.706 c 0.519,-0.819 1.555,-2.365 1.555,-2.365 0,0 -1.241,1.403 -1.766,2.231 -0.973,1.534 -4.006,4.738 -4.006,4.738 0,0 3.277,-3.123 4.217,-4.604 z"
           inkscape:connector-curvature="0"
           style="fill:none" /></g><g
         id="g17"><path
           id="path19"
           d="m 59.258,34.552 c 0.006,0.007 0.012,0.012 0.018,0.019 0,0 -2.023,0.263 -2.154,0.263 -0.932,0 -2.23,2.136 -2.23,5.614 0,3.478 1.299,5.614 2.23,5.614 0.539,0 3.51,-3.13 3.51,-3.13 v 10e-4 c 1.361,-1.081 2.728,-2.078 4.06,-3.05 5.788,-4.226 10.741,-7.089 11.13,-14.623 -0.352,0.073 -0.735,0.115 -1.122,0.115 -0.466,0 -0.933,-0.054 -1.336,-0.16 -0.607,0.647 -1.099,1.369 -1.616,2.133 -1.876,2.763 -3.992,5.865 -12.49,7.204 z"
           inkscape:connector-curvature="0"
           style="fill:none" /></g><g
         id="g21"><path
           id="path23"
           d="m 72.738,24.351 c 0.169,0.221 0.846,0.525 1.96,0.525 1.297,0 2.005,-0.413 2.005,-0.625 0,-0.212 -0.708,-0.625 -2.005,-0.625 -1.298,0 -2.006,0.413 -2.006,0.625 0,0.024 0.012,0.051 0.03,0.08 l 0.016,0.02 z"
           inkscape:connector-curvature="0"
           style="fill:none" /></g><g
         id="g25"><path
           sodipodi:nodetypes="cccccscccccsccsccccccsccccccccscsccsccccscscsccccsccscccccsscccccccsssccssccsccccsssccc"
           style="fill:#000000"
           inkscape:connector-curvature="0"
           id="path27"
           d="m 70.255,26.873 c -1.176,1.719 -2.497,3.44 -5.613,4.732 l 0,-17.142 c 0.061,-0.202 0.077,-0.401 0.051,-0.601 C 64.541,12.7 64.257,10.538 39.818,10.538 39.4,10.535 38.989,10.533 38.585,10.533 c -6.333,0 -17.237,0.482 -19.102,3.713 -0.288,0.499 -0.347,1.041 -0.187,1.565 L 19.146,75 l 0.033,0.531 c 0.021,0.324 0.114,0.632 0.278,0.916 1.376,2.383 8.003,3.983 16.491,3.983 0.582,0 1.17,-0.007 1.753,-0.022 2.257,0 3.551,0.174 4.693,0.327 0.86,0.116 1.604,0.216 2.549,0.216 1.704,0 4.009,-0.222 9.585,-1.786 C 64.85,76.269 64.642,75 64.642,75 l 0,-33.179 c 0.341,-0.275 0.664,-0.529 0.934,-0.727 5.92,-4.321 11.286,-8.185 11.59,-16.662 l -0.002,0 c 0.019,-0.059 0.04,-0.118 0.04,-0.183 0,-1.323 -4.008,-1.458 -4.848,-0.411 l -10e-4,-0.001 c -0.227,0.24 -0.531,0.685 -0.904,1.247 M 20.923,15.077 c 0.618,-1.07 5.033,-2.881 17.662,-2.881 l 1.226,0.005 c 19.731,0 22.737,1.481 23.183,1.866 -0.257,0.312 -1.631,1.408 -8.855,3.321 -4.642,1.23 -7.296,1.732 -9.159,1.732 -0.83,0 -1.521,-0.093 -2.328,-0.201 -1.139,-0.153 -2.556,-0.343 -4.918,-0.343 l -0.009,0 -0.007,0 c -0.624,0.017 -1.232,0.024 -1.827,0.024 -9.059,0 -14.199,-1.845 -14.955,-3.154 -0.097,-0.165 -0.081,-0.25 -0.013,-0.369 z M 63.017,75 c -1.531,0.74 -5.427,1.634 -8.914,2.558 -4.641,1.229 -7.294,1.731 -9.159,1.731 -0.823,0 -1.51,-0.092 -2.332,-0.201 -1.139,-0.152 -2.556,-0.342 -4.929,-0.342 -10e-4,0 -0.002,0 -0.003,0 -0.622,0.017 -1.231,0.024 -1.825,0.024 -9.061,0 -14.202,-1.845 -14.958,-3.157 -0.033,-0.056 -0.051,-0.109 -0.058,-0.172 L 20.786,75 20.767,17.507 c 2.604,1.688 8.29,2.756 15.219,2.756 0.581,0 1.171,-0.008 1.753,-0.023 2.248,0 3.546,0.174 4.691,0.329 0.86,0.116 1.604,0.215 2.549,0.215 1.703,0 3.985,-0.304 9.585,-1.787 4.407,-1.167 6.993,-2.107 8.452,-2.937 l 0,16.122 c -1.583,0.486 -3.524,0.885 -5.979,1.158 l 0,0.003 c -2.085,0.079 -3.647,3.104 -3.647,7.107 0,4.056 1.604,7.114 3.73,7.114 0.503,0 0.972,-0.189 1.401,-0.506 l -0.006,0.024 c 0.062,-0.052 0.14,-0.12 0.204,-0.175 0.049,-0.042 0.099,-0.078 0.146,-0.125 1.104,-0.944 2.694,-2.359 4.15,-3.604 l 0,31.822 z M 74.698,23.625 c 1.297,0 2.005,0.413 2.005,0.625 0,0.212 -0.708,0.625 -2.005,0.625 -1.114,0 -1.791,-0.304 -1.96,-0.525 l -0.016,-0.021 c -0.019,-0.028 -0.03,-0.056 -0.03,-0.08 0,-0.211 0.708,-0.624 2.006,-0.624 z m -2.952,3.724 c 0.518,-0.764 1.009,-1.486 1.616,-2.133 0.403,0.106 0.87,0.16 1.336,0.16 0.387,0 0.771,-0.042 1.122,-0.115 -0.389,7.533 -5.342,10.397 -11.13,14.623 -1.332,0.972 -2.698,1.97 -4.06,3.05 l 0,-10e-4 c 0,0 -2.971,3.13 -3.51,3.13 -0.932,0 -2.23,-2.136 -2.23,-5.614 0,-3.479 1.299,-5.614 2.23,-5.614 0.131,0 2.154,-0.263 2.154,-0.263 -0.006,-0.007 -0.012,-0.012 -0.018,-0.019 8.5,-1.34 10.616,-4.442 12.49,-7.204 z" /></g></g><g
       id="g29"
       transform="translate(30.990703,-5.5340541)"><path
         id="path31"
         d="m 37.43,17.068 c 0.431,0 0.873,-0.004 1.325,-0.013 h 0.006 0.006 c 1.715,0 2.742,0.097 3.568,0.175 0.586,0.055 1.087,0.103 1.689,0.103 1.353,0 3.278,-0.256 6.646,-0.884 5.242,-0.976 6.239,-1.535 6.426,-1.694 -0.324,-0.196 -2.505,-0.952 -16.821,-0.952 l -0.89,-0.002 c -9.163,0 -12.366,0.923 -12.814,1.469 -0.05,0.061 -0.061,0.104 0.009,0.189 0.548,0.668 4.276,1.609 10.85,1.609 z"
         inkscape:connector-curvature="0"
         style="fill:none" /></g><g
       id="g37"
       transform="translate(30.990703,-5.5340541)"><path
         id="path39"
         d="m 37.499,17.915 c 0.421,0 0.85,-0.004 1.272,-0.011 1.63,0 2.572,0.089 3.403,0.167 0.625,0.059 1.165,0.11 1.85,0.11 1.236,0 2.892,-0.155 6.955,-0.912 3.197,-0.596 5.171,-0.973 6.132,-1.498 0.34,-0.186 0.99,-0.604 1.194,-0.87 0.058,-0.076 0.037,-0.168 0.021,-0.251 -0.11,-0.592 -0.315,-1.695 -18.047,-1.695 -0.304,-10e-4 -0.603,-0.003 -0.896,-0.003 -4.595,0 -13.6,0.183 -13.86,1.894 -0.044,0.292 0.135,0.898 0.348,1.151 0.61,0.728 6.601,1.918 11.628,1.918 z M 26.57,15.271 c 0.448,-0.546 3.651,-1.469 12.814,-1.469 l 0.89,0.002 c 14.316,0 16.497,0.756 16.821,0.952 -0.187,0.159 -1.184,0.718 -6.426,1.694 -3.367,0.627 -5.293,0.884 -6.646,0.884 -0.603,0 -1.104,-0.047 -1.689,-0.103 -0.826,-0.078 -1.854,-0.175 -3.568,-0.175 H 38.76 38.754 c -0.452,0.008 -0.895,0.013 -1.325,0.013 -6.573,0 -10.302,-0.941 -10.851,-1.609 -0.068,-0.086 -0.057,-0.129 -0.008,-0.189 z"
         inkscape:connector-curvature="0"
         style="fill:#000000" /></g><g
       id="g41"
       transform="translate(30.990703,-5.5340541)"><path
         id="path43"
         d="m 37.862,16.286 c 0.309,0 0.626,-0.002 0.949,-0.006 h 0.005 0.004 c 1.229,0 1.965,0.048 2.557,0.088 0.42,0.028 0.779,0.052 1.211,0.052 0.969,0 2.349,-0.129 4.762,-0.444 3.756,-0.491 4.47,-0.772 4.604,-0.852 -0.232,-0.099 -1.795,-0.478 -12.053,-0.478 l -0.638,-0.002 c -6.565,0 -8.86,0.464 -9.182,0.739 -0.035,0.03 -0.044,0.052 0.006,0.095 0.393,0.335 3.065,0.808 7.775,0.808 z"
         inkscape:connector-curvature="0"
         style="fill:none" /></g><g
       id="g45"
       transform="translate(30.990703,-5.5340541)"><path
         id="path47"
         d="m 37.912,16.712 c 0.302,0 0.608,-0.002 0.911,-0.006 1.168,0 1.844,0.044 2.439,0.084 0.447,0.03 0.834,0.055 1.325,0.055 0.885,0 2.071,-0.078 4.983,-0.458 2.29,-0.3 3.705,-0.489 4.394,-0.754 0.243,-0.093 0.709,-0.303 0.855,-0.437 0.041,-0.038 0.026,-0.084 0.016,-0.126 -0.079,-0.298 -0.227,-0.853 -12.932,-0.853 -0.218,-0.001 -0.432,-0.001 -0.642,-0.001 -3.292,0 -9.744,0.092 -9.931,0.952 -0.032,0.147 0.096,0.452 0.248,0.579 0.44,0.366 4.732,0.965 8.334,0.965 z m -7.831,-1.33 c 0.321,-0.275 2.616,-0.739 9.182,-0.739 l 0.638,0.002 c 10.258,0 11.82,0.379 12.053,0.478 -0.134,0.08 -0.848,0.361 -4.604,0.852 -2.413,0.315 -3.793,0.444 -4.762,0.444 -0.432,0 -0.791,-0.024 -1.211,-0.052 -0.592,-0.04 -1.328,-0.088 -2.557,-0.088 h -0.004 -0.005 c -0.323,0.004 -0.641,0.006 -0.949,0.006 -4.71,0 -7.382,-0.473 -7.775,-0.809 -0.05,-0.041 -0.041,-0.064 -0.006,-0.094 z"
         inkscape:connector-curvature="0"
         style="fill:#000000" /></g><g
       id="g49"
       transform="translate(30.990703,-5.5340541)"><path
         id="path51"
         d="m 39.522,15.694 c 0.142,0 0.287,-0.001 0.436,-0.002 h 0.002 0.002 c 0.563,0 0.902,0.021 1.174,0.038 0.192,0.013 0.357,0.022 0.557,0.022 0.444,0 1.078,-0.056 2.187,-0.193 1.725,-0.213 2.052,-0.335 2.113,-0.37 -0.106,-0.043 -0.824,-0.208 -5.534,-0.208 h -0.293 c -3.015,0 -4.068,0.202 -4.216,0.321 -0.017,0.013 -0.02,0.023 0.003,0.041 0.18,0.146 1.406,0.351 3.569,0.351 z"
         inkscape:connector-curvature="0"
         style="fill:none" /></g><g
       id="g53"
       transform="translate(30.990703,-5.5340541)"><path
         id="path55"
         d="m 39.545,15.879 c 0.139,0 0.279,-10e-4 0.418,-0.003 0.536,0 0.847,0.02 1.12,0.037 0.206,0.013 0.384,0.023 0.609,0.023 0.405,0 0.95,-0.034 2.287,-0.199 1.053,-0.13 1.702,-0.213 2.019,-0.327 0.111,-0.04 0.325,-0.132 0.393,-0.19 0.019,-0.016 0.012,-0.037 0.007,-0.055 -0.036,-0.13 -0.104,-0.37 -5.938,-0.37 -0.1,-10e-4 -0.198,-10e-4 -0.295,-10e-4 -1.512,0 -4.474,0.04 -4.561,0.414 -0.014,0.063 0.045,0.196 0.115,0.251 0.201,0.16 2.172,0.42 3.826,0.42 z m -3.596,-0.577 c 0.147,-0.119 1.201,-0.321 4.216,-0.321 h 0.293 c 4.71,0 5.428,0.166 5.534,0.208 -0.062,0.035 -0.389,0.157 -2.113,0.37 -1.108,0.137 -1.742,0.193 -2.187,0.193 -0.199,0 -0.364,-0.01 -0.557,-0.022 -0.271,-0.017 -0.61,-0.038 -1.174,-0.038 H 39.96 39.958 c -0.148,10e-4 -0.294,0.002 -0.436,0.002 -2.163,0 -3.39,-0.206 -3.57,-0.352 -0.022,-0.017 -0.019,-0.027 -0.003,-0.04 z"
         inkscape:connector-curvature="0"
         style="fill:#000000" /></g><g
       id="g57"
       transform="translate(30.990703,-5.5340541)"><g
         id="g59"><path
           id="path61"
           d="M 43.457,76.639 C 43.362,76.628 44.231,68.375 43.623,61.638 42.431,48.496 40.799,30.5 46.778,21.587 l 0.174,-0.258 0.372,-0.391 0.229,0.47 0.129,0.278 c 3.53,9.038 2.396,24.226 1.486,36.43 -0.611,8.189 0.778,18.502 0.778,18.502 -0.474,0.039 -0.906,-0.119 -1.248,-0.459 -1.669,-1.652 -1.308,-7.653 -0.527,-18.118 0.872,-11.688 1.949,-26.136 -1.082,-35.062 -5.161,8.892 -3.611,25.982 -2.472,38.567 0.812,8.96 1.17,13.688 -0.24,14.827 -0.192,0.156 -0.497,0.312 -0.92,0.266 z"
           inkscape:connector-curvature="0"
           style="fill:#000000" /></g></g><g
       id="g63"
       transform="translate(30.990703,-5.5340541)"><g
         id="g65"><path
           id="path67"
           d="m 25.581,76.047 c -0.513,0.01 -0.976,-0.152 -1.38,-0.483 -2.716,-2.232 -2.417,-12.082 -1.965,-26.992 0.248,-8.171 0.529,-17.434 0.342,-27.234 l 0.417,-0.008 0.333,-0.006 c 0.188,9.819 -0.094,19.091 -0.342,27.271 -0.414,13.629 -0.74,24.393 1.691,26.391 0.293,0.24 6.852,-41.234 4.403,-51.13 -0.376,-1.524 -0.757,-2.683 -0.757,-2.683 1.039,0.406 1.676,2.285 2.003,5.912 0.535,5.931 0.142,16.832 -1.051,29.161 -0.074,0.766 -1.821,18.661 -3.164,19.707 l 0.005,0.028 c -0.027,0.006 -0.055,0.012 -0.081,0.018 -0.086,0.041 -0.178,0.053 -0.269,0.04 -0.062,0.004 -0.124,0.007 -0.185,0.008 z"
           inkscape:connector-curvature="0"
           style="fill:#000000" /></g></g><g
       id="g69"
       transform="translate(30.990703,-5.5340541)"><g
         id="g71"><path
           id="path73"
           d="m 26.138,52.884 c -0.31,0.554 -0.43,0.228 -0.811,-0.151 -1.766,-1.753 -1.561,-27.764 -0.04,-28.791 0,0 1.248,-0.522 1.443,-0.022 4.692,12.018 -0.592,28.964 -0.592,28.964 z M 25.857,24.803 c -4.565,8.03 -0.361,28.822 -0.058,27.285 0,0 0.158,-3.913 0.818,-9.445 0.942,-7.891 1.018,-17.66 -0.359,-18.077 -0.112,-0.034 -0.343,0.136 -0.401,0.237 z"
           inkscape:connector-curvature="0"
           style="fill:#000000" /></g></g><g
       id="g75"
       transform="translate(30.990703,-5.5340541)"><g
         id="g77"><path
           id="path79"
           d="m 39.96,45.175 c 0.31,-0.578 0.43,-0.237 0.812,0.158 1.765,1.831 1.56,28.983 0.039,30.055 0,0 -1.248,0.545 -1.443,0.022 C 34.676,62.866 39.96,45.175 39.96,45.175 z m 0.281,29.315 c 4.566,-8.382 0.361,-30.088 0.059,-28.484 0,0 -0.158,4.086 -0.818,9.86 -0.941,8.238 -1.018,18.437 0.359,18.873 0.111,0.034 0.343,-0.142 0.4,-0.249 z"
           inkscape:connector-curvature="0"
           style="fill:#000000" /></g></g><g
       id="g81"
       transform="translate(30.990703,-5.5340541)"><g
         id="g83"><path
           id="path85"
           d="m 34.032,76.176 c -4.298,-0.964 -3.66,-7.538 -2.602,-18.43 0.887,-9.139 2.103,-21.655 0.714,-35.843 l 0.995,-0.098 c 1.398,14.285 0.178,26.856 -0.713,36.037 -0.97,9.988 -1.611,16.587 1.825,17.356 l -0.219,0.978 z"
           inkscape:connector-curvature="0"
           style="fill:#000000" /></g></g><g
       id="g87"
       transform="translate(30.990703,-5.5340541)"><g
         id="g89"><path
           id="path91"
           d="m 50.372,21.269 c 4.297,0.964 3.659,7.538 2.602,18.43 -0.887,9.14 -2.103,21.655 -0.714,35.843 L 51.265,75.64 C 49.867,61.355 51.087,48.783 51.978,39.603 52.949,29.615 53.589,23.016 50.154,22.247 l 0.218,-0.978 z"
           inkscape:connector-curvature="0"
           style="fill:#000000" /></g></g><g
       id="g93"
       transform="translate(30.990703,-5.5340541)"><g
         id="g95"><path
           id="path97"
           d="m 34.206,70.892 c -0.368,0 -0.233,-1.316 -0.233,-1.316 0.1,0.148 0.174,0.229 0.223,0.273 1.248,-1.448 1.121,-16.383 0.999,-30.834 C 35.15,33.747 35.104,28.3 35.104,22.772 c 0,0 1.046,10.969 1.091,16.235 0.197,23.132 0.102,31.277 -1.736,31.847 -0.086,0.025 -0.17,0.038 -0.253,0.038 z"
           inkscape:connector-curvature="0"
           style="fill:#000000" /></g></g><g
       id="g99"
       transform="translate(30.990703,-5.5340541)"><path
         id="path101"
         d="m 56.295,34.188 c 0.149,-3.873 0.427,-6.52 0.916,-7.087 0.049,0.043 0.123,0.125 0.223,0.273 0,0 0.135,-1.316 -0.233,-1.316 -0.083,0 -0.167,0.012 -0.251,0.039 -0.987,0.306 -1.472,2.805 -1.678,8.638 l 1.023,-0.547 z"
         inkscape:connector-curvature="0"
         style="fill:#000000" /></g><g
       id="g103"
       transform="translate(30.990703,-5.5340541)"><path
         id="path105"
         d="m 55.889,46.122 -0.998,-0.401 c 0.001,3.674 0.029,7.972 0.072,12.972 0.045,5.268 1.091,16.236 1.091,16.236 0,-5.529 -0.046,-10.977 -0.091,-16.244 -0.036,-4.266 -0.072,-8.572 -0.074,-12.563 z"
         inkscape:connector-curvature="0"
         style="fill:#000000" /></g><g
       id="g107"
       transform="translate(30.990703,-5.5340541)"><path
         id="path109"
         d="M 60.628,44.265 59.6,45.074 c -0.095,3.031 -0.079,5.872 0.065,8.524 0.546,10.02 0.906,16.641 -2.56,17.264 l 0.178,0.986 c 4.334,-0.783 3.976,-7.379 3.381,-18.303 -0.152,-2.795 -0.157,-5.906 -0.036,-9.28 z"
         inkscape:connector-curvature="0"
         style="fill:#000000" /></g><g
       id="g111"
       transform="translate(30.990703,-5.5340541)"><path
         id="path113"
         d="m 59.836,33.562 c 0.25,-4.831 0.653,-9.992 1.181,-15.381 l -1,1.128 c -0.505,5.157 -0.894,9.938 -1.145,14.382 l 0.964,-0.129 z"
         inkscape:connector-curvature="0"
         style="fill:#000000" /></g><g
       id="g115"
       transform="translate(30.990703,-5.5340541)"><ellipse
         id="ellipse117"
         ry="7.6420002"
         rx="1.344"
         cy="36.623001"
         cx="46.402"
         d="m 47.746,36.623001 c 0,4.22056 -0.601729,7.642 -1.344,7.642 -0.74227,0 -1.344,-3.42144 -1.344,-7.642 0,-4.22056 0.60173,-7.642 1.344,-7.642 0.742271,0 1.344,3.42144 1.344,7.642 z"
         sodipodi:cx="46.402"
         sodipodi:cy="36.623001"
         sodipodi:rx="1.344"
         sodipodi:ry="7.6420002"
         style="fill:#000000" /></g><g
       id="g119"
       transform="translate(30.990703,-5.5340541)"><path
         id="path121"
         d="m 40.964,43.438 c -3.194,0 -4.038,-14.15 -4.038,-21.632 h 1 c 0,13.546 1.978,20.632 3.038,20.632 v 1 z"
         inkscape:connector-curvature="0"
         style="fill:#000000" /></g><g
       id="g123"
       transform="translate(30.990703,-5.5340541)"><g
         id="g125"><path
           id="path127"
           d="m 39.891,36.094 c 0,0 1.442,-5.995 1.442,-14.825 h 0.938 c 0,5.821 -2.38,14.825 -2.38,14.825 z"
           inkscape:connector-curvature="0"
           style="fill:#000000" /></g></g><g
       id="g129"
       transform="translate(30.990703,-5.5340541)"><g
         id="g131"><path
           id="path133"
           d="m 60.19,37.411 c -0.569,0 -1.053,-0.047 -1.422,-0.121 -0.214,-0.042 -2.404,-0.162 -2.404,-0.54 l 0.401,-0.656 h 0.692 l 1.251,0.406 c 0.312,0.152 2.834,0.45 5.869,-0.705 2.618,-0.996 6.218,-3.344 8.497,-8.875 l 0.693,0.286 C 70.284,35.662 63.646,37.411 60.19,37.411 z"
           inkscape:connector-curvature="0"
           style="fill:#000000" /></g></g><g
       id="g135"
       transform="translate(30.990703,-5.5340541)"><path
         id="path137"
         d="m 57.016,43.621 h -0.75 c 0,-1.977 3.29,-3.479 6.774,-5.07 2.98,-1.361 6.063,-2.769 6.926,-4.384 l 0.662,0.354 c -0.982,1.838 -4.183,3.299 -7.276,4.712 -3.116,1.422 -6.336,2.893 -6.336,4.388 z"
         inkscape:connector-curvature="0"
         style="fill:#000000" /></g></g><g
     transform="translate(121.41183,15.903526)"
     id="g4063"><g
       transform="translate(-10.514703,79.69038)"
       id="g4065"><g
         id="g4087"
         transform="translate(-78.535092,14.321105)"><path
           style="fill:#94a841;fill-opacity:1"
           d="m 37.299632,-82.319842 c 0.403,-2.278 1.325,-4.318 1.985,-4.73 0.81,0.736 1.578,0.99 2.244,0.99 0.488,0 0.922,-0.133 1.278,-0.304 2.591,-1.244 4.555,-6.358 4.187,-9.415 l -0.035,-0.621 -0.506,0 c -3.078,0 -7.922,2.561 -8.848,5.281 -0.294,0.864 -0.318,2.116 1.018,3.329 -1.481,1.131 -2.421,4.882 -2.519,7.259"
           id="path4207"
           inkscape:connector-curvature="0" /><path
           style="fill:#ffffff;fill-opacity:1"
           d="m 43.690973,-92.814818 c 0.524,-0.828 1.766,-2.231 1.766,-2.231 0,0 -1.036,1.545 -1.555,2.365 -0.939,1.481 -4.217,4.604 -4.217,4.604 0,0 3.033,-3.204 4.006,-4.738 z"
           id="path4205"
           inkscape:connector-curvature="0" /></g><g
         id="g4067"><path
           style="fill:none"
           inkscape:connector-curvature="0"
           d="m 58.721,46.906 c -0.064,0.055 -0.143,0.123 -0.204,0.175 l 0.006,-0.024 c -0.43,0.316 -0.898,0.506 -1.401,0.506 -2.127,0 -3.73,-3.058 -3.73,-7.114 0,-4.002 1.562,-7.028 3.647,-7.107 v -0.003 c 2.454,-0.272 4.396,-0.671 5.979,-1.158 V 16.06 c -1.459,0.83 -4.045,1.77 -8.452,2.937 -5.6,1.483 -7.882,1.787 -9.585,1.787 -0.944,0 -1.688,-0.1 -2.549,-0.215 -1.146,-0.154 -2.444,-0.329 -4.691,-0.329 -0.583,0.015 -1.173,0.023 -1.753,0.023 -6.929,0 -12.615,-1.067 -15.219,-2.756 L 20.786,75 l 0.052,0.441 c 0.007,0.062 0.025,0.116 0.058,0.172 0.757,1.312 5.897,3.157 14.958,3.157 0.594,0 1.203,-0.008 1.825,-0.024 10e-4,0 0.002,0 0.003,0 2.373,0 3.79,0.189 4.929,0.342 0.822,0.109 1.509,0.201 2.332,0.201 1.865,0 4.519,-0.502 9.159,-1.731 3.487,-0.924 7.383,-1.817 8.914,-2.558 V 43.177 c -1.456,1.245 -3.047,2.661 -4.15,3.604 -0.047,0.047 -0.096,0.083 -0.145,0.125 z"
           id="path4069" /></g><g
         id="g4071"><path
           style="fill:none"
           inkscape:connector-curvature="0"
           d="m 35.89,18.602 c 0.595,0 1.204,-0.008 1.827,-0.024 h 0.007 0.009 c 2.362,0 3.78,0.19 4.918,0.343 0.807,0.108 1.498,0.201 2.328,0.201 1.863,0 4.518,-0.502 9.159,-1.732 7.225,-1.914 8.599,-3.009 8.855,-3.321 -0.446,-0.384 -3.452,-1.866 -23.183,-1.866 l -1.226,-0.005 c -12.629,0 -17.044,1.811 -17.662,2.881 -0.068,0.119 -0.084,0.204 0.012,0.37 0.757,1.308 5.897,3.153 14.956,3.153 z"
           id="path4073" /></g><g
         id="g4075"><path
           style="fill:none"
           inkscape:connector-curvature="0"
           d="m 77.976,14.706 c 0.519,-0.819 1.555,-2.365 1.555,-2.365 0,0 -1.241,1.403 -1.766,2.231 -0.973,1.534 -4.006,4.738 -4.006,4.738 0,0 3.277,-3.123 4.217,-4.604 z"
           id="path4077" /></g><g
         id="g4079"><path
           style="fill:none"
           inkscape:connector-curvature="0"
           d="m 59.258,34.552 c 0.006,0.007 0.012,0.012 0.018,0.019 0,0 -2.023,0.263 -2.154,0.263 -0.932,0 -2.23,2.136 -2.23,5.614 0,3.478 1.299,5.614 2.23,5.614 0.539,0 3.51,-3.13 3.51,-3.13 v 10e-4 c 1.361,-1.081 2.728,-2.078 4.06,-3.05 5.788,-4.226 10.741,-7.089 11.13,-14.623 -0.352,0.073 -0.735,0.115 -1.122,0.115 -0.466,0 -0.933,-0.054 -1.336,-0.16 -0.607,0.647 -1.099,1.369 -1.616,2.133 -1.876,2.763 -3.992,5.865 -12.49,7.204 z"
           id="path4081" /></g><g
         id="g4083"><path
           style="fill:none"
           inkscape:connector-curvature="0"
           d="m 72.738,24.351 c 0.169,0.221 0.846,0.525 1.96,0.525 1.297,0 2.005,-0.413 2.005,-0.625 0,-0.212 -0.708,-0.625 -2.005,-0.625 -1.298,0 -2.006,0.413 -2.006,0.625 0,0.024 0.012,0.051 0.03,0.08 l 0.016,0.02 z"
           id="path4085" /></g></g></g></svg>