<?xml-stylesheet type="text/css" href="svg.css" ?>
<svg
         xmlns:dc="http://purl.org/dc/elements/1.1/"
         xmlns:cc="http://creativecommons.org/ns#"
         xmlns:rdf="http://www.w3.org/1999/02/22-rdf-syntax-ns#"
         xmlns:svg="http://www.w3.org/2000/svg"
         xmlns="http://www.w3.org/2000/svg"
         xmlns:sodipodi="http://sodipodi.sourceforge.net/DTD/sodipodi-0.dtd"
         xmlns:inkscape="http://www.inkscape.org/namespaces/inkscape"
         class="animated-dots"
         xml:space="preserve"
         preserveAspectRatio="xMinYMin meet"
         viewBox="0 0 580 240"
         id="svg2"
         version="1.1"
         inkscape:version="0.48.5 r10040"
         sodipodi:docname="logeverywhere.svg">
        <defs
           id="defs4" />
        <sodipodi:namedview
           id="base"
           pagecolor="#ffffff"
           bordercolor="#666666"
           borderopacity="1.0"
           inkscape:pageopacity="0.0"
           inkscape:pageshadow="2"
           inkscape:zoom="1.3867051"
           inkscape:cx="296.82655"
           inkscape:cy="135.34081"
           inkscape:document-units="px"
           inkscape:current-layer="g3321"
           showgrid="false"
           inkscape:window-width="1280"
           inkscape:window-height="694"
           inkscape:window-x="40"
           inkscape:window-y="0"
           inkscape:window-maximized="0" />
        <metadata
           id="metadata7">
          <rdf:RDF>
            <cc:Work
               rdf:about="">
              <dc:format>image/svg+xml</dc:format>
              <dc:type
                 rdf:resource="http://purl.org/dc/dcmitype/StillImage" />
              <dc:title></dc:title>
            </cc:Work>
          </rdf:RDF>
        </metadata>
        <g
           inkscape:label="Layer 1"
           inkscape:groupmode="layer"
           id="layer1"
           transform="translate(0,-819.36214)">
          <g
             id="g3066"
             transform="matrix(0.5489893,0,0,0.5489893,144.3279,840.97745)"
             style="fill:#666666">
            <path
               id="path3055"
               d="m 33.57373,99.90723 c -4.64453,0 -8.41064,-3.8418 -8.41064,-8.58203 V 9.33691 c 0,-4.73828 3.76611,-8.57959 8.41064,-8.57959 h 33.50635 c 4.64453,0 8.41211,3.84131 8.41211,8.57959 V 91.3252 c 0,4.74023 -3.76758,8.58203 -8.41211,8.58203 M 25.0957,29.16895 c 0,0 -0.54785,-0.0039 -0.54785,0.29248 v 3.17676 c 0,0.17627 0.17383,0.34619 0.54785,0.34619 v -3.81543 z m 0,-8.91016 c 0,0 -0.54785,-0.002 -0.54785,0.29248 v 3.17676 c 0,0.17627 0.17383,0.34668 0.54785,0.34668 V 20.25879 z M 25.11182,9.95703 c 0,0 -0.54785,-0.00342 -0.54785,0.29248 v 4.12598 c 0,0.17627 0.17334,0.34668 0.54785,0.34668 V 9.95703 z M 66.8457,0.69482 c 0,0 -0.0078,-0.57227 -0.30469,-0.57227 h -7.64453 c -0.17578,0 -0.33398,0.19873 -0.33398,0.57227 h 8.2832 z M 50.24463,86.2832 c -0.4873,0 -0.95654,0.07812 -1.39795,0.21875 -1.85889,0.5918 -3.20605,2.33203 -3.20605,4.38672 0,2.05469 1.34717,3.79297 3.20605,4.38672 0.44141,0.14062 0.91064,0.21875 1.39795,0.21875 2.54248,0 4.60498,-2.0625 4.60498,-4.60547 0,-2.54297 -2.0625,-4.60547 -4.60498,-4.60547 m -1.61914,5.47071 v -1.73047 c 0,-0.41602 0.33838,-0.75391 0.75488,-0.75391 h 1.729 c 0.41602,0 0.75391,0.33789 0.75391,0.75391 v 1.73047 c 0,0.41602 -0.33789,0.75391 -0.75391,0.75391 h -1.729 c -0.4165,-10e-6 -0.75488,-0.3379 -0.75488,-0.75391 m 2.93701,-1.73047 c 0,-0.25 -0.20312,-0.45312 -0.45312,-0.45312 h -1.729 c -0.25049,0 -0.45312,0.20312 -0.45312,0.45312 v 1.73047 c 0,0.24805 0.20264,0.45312 0.45312,0.45312 h 1.729 c 0.25,0 0.45312,-0.20508 0.45312,-0.45312 V 90.02344 z M 71.64844,16.9209 H 28.84082 V 81.41309 H 71.64844 V 16.9209 z M 42.15576,7.31689 c -0.70996,0 -1.28613,0.57617 -1.28613,1.28613 0,0.70996 0.57617,1.28613 1.28613,1.28613 0.70996,0 1.28613,-0.57617 1.28613,-1.28613 0,-0.70996 -0.57617,-1.28613 -1.28613,-1.28613 z m 0,0.82813 c -0.25293,0 -0.45801,0.20508 -0.45801,0.45801 0,0.25293 0.20508,0.45801 0.45801,0.45801 0.25293,0 0.45801,-0.20508 0.45801,-0.45801 0,-0.25293 -0.20508,-0.45801 -0.45801,-0.45801 z"
               inkscape:connector-curvature="0"
               style="fill:#666666" />
            <path
               id="path3057"
               d="m 55.65234,8.48096 c 0,0.89355 -0.86523,1.02832 -1.0293,1.02832 H 47.2793 c -0.56689,0 -1.02832,-0.46045 -1.02832,-1.02832 0,-0.56738 0.46143,-1.02783 1.02832,-1.02783 -0.16211,0 0.19971,0 0.38721,0 0.16211,0 1.08789,0 1.25,0 -0.24316,0 1.3125,0 1.5625,0 0.24316,0 0.81982,0 1.06201,0 l 3.23828,0.01318 c 0.74609,0.11133 0.87304,0.85107 0.87304,1.01465"
               class="st0"
               inkscape:connector-curvature="0"
               style="fill:#666666" />
          </g>
          <g
             id="g3156"
             transform="translate(15.444499,915.33474)"
             style="fill:#666666">
            <path
               id="path3158"
               d="m 89.6,89.072 c -0.236,-0.337 -0.621,-0.538 -1.033,-0.538 h -75.87 c -0.373,0 -0.726,0.164 -0.966,0.449 L 4.15,97.981 c -0.317,0.377 -0.387,0.902 -0.18,1.348 0.208,0.445 0.654,0.73 1.146,0.73 h 89.767 c 0.473,0 0.904,-0.263 1.123,-0.681 0.217,-0.419 0.184,-0.924 -0.088,-1.309 L 89.6,89.072 z m -2.399,1.054 0.721,1.242 h -2.986 l -0.621,-1.242 h 2.886 z m -32.125,0 h 3.061 l 0.053,1.242 h -3.158 l 0.044,-1.242 z m -0.121,3.287 h 3.32 l 0.055,1.241 h -3.42 l 0.045,-1.241 z m -5.703,-3.287 h 3.052 l -0.08,1.242 h -3.152 l 0.18,-1.242 z m -0.474,3.287 h 3.314 l -0.082,1.241 h -3.411 l 0.179,-1.241 z m -5.345,-3.287 h 3.032 l -0.214,1.242 h -3.13 l 0.312,-1.242 z m -0.827,3.287 h 3.293 l -0.214,1.241 h -3.392 l 0.313,-1.241 z M 37.62,90.126 h 2.997 l -0.347,1.242 h -3.095 l 0.445,-1.242 z m -1.18,3.287 h 3.258 l -0.346,1.241 h -3.357 l 0.445,-1.241 z m -4.627,-3.287 h 2.95 l -0.48,1.242 h -3.048 l 0.578,-1.242 z m -1.532,3.287 h 3.21 l -0.479,1.241 h -3.31 l 0.579,-1.241 z m -4.269,-3.287 h 2.891 L 28.29,91.368 H 25.3 l 0.712,-1.242 z m -5.796,0 h 2.822 l -0.747,1.242 H 19.37 l 0.846,-1.242 z m -5.793,0 h 2.745 l -0.879,1.242 h -2.844 l 0.978,-1.242 z m -2.718,7.71 H 8.346 l 0.978,-1.24 h 3.259 l -0.878,1.24 z m 2.255,-3.182 h -3.105 l 0.978,-1.241 h 3.007 l -0.88,1.241 z m 4.442,3.182 h -3.436 l 0.845,-1.24 h 3.337 l -0.746,1.24 z m 1.914,-3.182 h -3.183 l 0.845,-1.241 h 3.084 l -0.746,1.241 z m 4.779,3.182 h -3.504 l 0.711,-1.24 h 3.406 l -0.613,1.24 z m 1.572,-3.182 h -3.251 l 0.711,-1.241 h 3.152 l -0.612,1.241 z m 1.552,3.182 0.578,-1.24 h 29.617 l 0.053,1.24 H 28.219 z m 32.691,-7.71 h 3.053 l 0.186,1.242 h -3.15 L 60.91,90.126 z m 0.233,3.287 h 6.193 l -0.582,-3.287 h 3.029 l 1.189,4.528 H 61.23 l -0.087,-1.241 z m 0.31,4.423 -0.088,-1.24 h 3.568 l 0.186,1.24 h -3.666 z m 6.67,0 -0.221,-1.24 h 3.545 l 0.318,1.24 h -3.642 z m 4.477,-7.71 h 2.996 l 0.453,1.242 H 72.953 L 72.6,90.126 z m 0.937,3.287 h 3.256 l 0.451,1.241 H 73.89 l -0.353,-1.241 z m 1.262,4.423 -0.354,-1.24 h 3.51 l 0.451,1.24 h -3.607 z m 3.656,-7.71 H 81.4 l 0.586,1.242 h -3.045 l -0.486,-1.242 z m 1.289,3.287 h 3.207 l 0.586,1.241 H 80.23 l -0.486,-1.241 z m 1.736,4.423 -0.486,-1.24 h 3.461 l 0.584,1.24 H 81.48 z m 4.477,-4.423 h 3.148 l 0.721,1.241 h -3.25 l -0.619,-1.241 z m 2.211,4.423 -0.619,-1.24 h 3.4 l 0.719,1.24 h -3.5 z"
               inkscape:connector-curvature="0"
               style="fill:#666666" />
            <path
               id="path3160"
               d="m 33.333,84.576 c -1.216,1.216 0.695,1.911 0.695,1.911 h 15.751 0.056 0.056 15.75 c 0,0 1.91,-0.695 0.695,-1.911 C 65.119,83.36 61.818,82.491 61.473,77.28 61.446,76.871 61.462,75.237 61.467,73.111 H 38.201 c 0.005,2.126 0.022,3.76 -0.005,4.169 -0.347,5.211 -3.648,6.08 -4.863,7.296 z"
               inkscape:connector-curvature="0"
               style="fill:#666666" />
            <path
               id="path3162"
               d="M 96,0 H 4 C 1.8,0 0,1.8 0,4 v 63.921 c 0,2.2 1.8,4 4,4 h 92 c 2.2,0 4,-1.8 4,-4 V 4 C 100,1.8 98.2,0 96,0 z M 50.616,69.289 c -1.679,0 -3.04,-1.36 -3.04,-3.039 0,-1.679 1.361,-3.04 3.04,-3.04 1.679,0 3.04,1.361 3.04,3.04 0,1.679 -1.361,3.039 -3.04,3.039 z M 94.651,56.262 H 5.539 V 5.539 h 89.112 v 50.723 z"
               inkscape:connector-curvature="0"
               style="fill:#666666" />
          </g>
          <g
             id="g3321"
             transform="matrix(1.1228505,0,0,-1.1228505,437.06379,1058.0382)"
             style="fill:#666666">
            <path
               id="path3301"
               d="M 77.546,34.59 H 12.455 c -1.816,0 -3.288,1.472 -3.288,3.288 v 14.246 c 0,1.815 1.472,3.287 3.288,3.287 h 65.091 c 1.815,0 3.287,-1.472 3.287,-3.287 V 37.877 c 0,-1.815 -1.472,-3.287 -3.287,-3.287 z M 57.491,48.178 H 16.508 v -6.355 h 40.983 v 6.355 z m 14.738,-0.219 c -1.634,0 -2.958,-1.325 -2.958,-2.959 0,-1.634 1.324,-2.958 2.958,-2.958 1.635,0 2.959,1.325 2.959,2.958 0,1.633 -1.324,2.959 -2.959,2.959 z m 5.317,10.506 H 12.455 c -1.816,0 -3.288,1.472 -3.288,3.287 v 14.246 c 0,1.815 1.472,3.287 3.288,3.287 h 65.091 c 1.815,0 3.287,-1.472 3.287,-3.287 V 61.752 c 0,-1.815 -1.472,-3.287 -3.287,-3.287 z M 57.491,72.053 H 16.508 v -6.355 h 40.983 v 6.355 z m 14.738,-0.219 c -1.634,0 -2.958,-1.325 -2.958,-2.959 0,-1.634 1.324,-2.959 2.958,-2.959 1.635,0 2.959,1.325 2.959,2.959 0,1.634 -1.324,2.959 -2.959,2.959 z M 77.546,10.215 H 12.455 c -1.816,0 -3.288,1.472 -3.288,3.288 v 14.246 c 0,1.815 1.472,3.287 3.288,3.287 h 65.091 c 1.815,0 3.287,-1.472 3.287,-3.287 V 13.502 c 0,-1.815 -1.472,-3.287 -3.287,-3.287 z M 57.491,23.803 H 16.508 v -6.355 h 40.983 v 6.355 z m 14.738,-0.219 c -1.634,0 -2.958,-1.325 -2.958,-2.959 0,-1.634 1.324,-2.958 2.958,-2.958 1.635,0 2.959,1.325 2.959,2.958 0,1.633 -1.324,2.959 -2.959,2.959 z"
               inkscape:connector-curvature="0"
               style="fill:#666666" />
            <g
               id="g3303"
               style="fill:#666666" />
            <g
               id="g3305"
               style="fill:#666666" />
            <g
               id="g3307"
               style="fill:#666666" />
            <g
               id="g3309"
               style="fill:#666666" />
            <g
               id="g3311"
               style="fill:#666666" />
            <g
               id="g3313"
               style="fill:#666666" />
            <path
               sodipodi:type="arc"
               style="fill:#00ff81;fill-opacity:1;fill-rule:evenodd;stroke:none"
               id="path5909"
               sodipodi:cx="554.47754"
               sodipodi:cy="166.959"
               sodipodi:rx="4.9363976"
               sodipodi:ry="4.9363976"
               d="m 559.41394,166.959 a 4.9363976,4.9363976 0 1 1 -9.8728,0 4.9363976,4.9363976 0 1 1 9.8728,0 z"
               transform="matrix(0.60313141,0,0,-0.60313141,-262.1737,169.60152)" />
            <path
               transform="matrix(0.60313141,0,0,-0.60313141,-262.20394,145.70396)"
               d="m 559.41394,166.959 a 4.9363976,4.9363976 0 1 1 -9.8728,0 4.9363976,4.9363976 0 1 1 9.8728,0 z"
               sodipodi:ry="4.9363976"
               sodipodi:rx="4.9363976"
               sodipodi:cy="166.959"
               sodipodi:cx="554.47754"
               id="path6679"
               style="fill:#00ff81;fill-opacity:1;fill-rule:evenodd;stroke:none"
               sodipodi:type="arc" />
            <path
               sodipodi:type="arc"
               style="fill:#00ff81;fill-opacity:1;fill-rule:evenodd;stroke:none"
               id="path6681"
               sodipodi:cx="554.47754"
               sodipodi:cy="166.959"
               sodipodi:rx="4.9363976"
               sodipodi:ry="4.9363976"
               d="m 559.41394,166.959 a 4.9363976,4.9363976 0 1 1 -9.8728,0 4.9363976,4.9363976 0 1 1 9.8728,0 z"
               transform="matrix(0.60313141,0,0,-0.60313141,-262.19377,121.30412)" />
          </g>
          <g
             id="g3765"
             transform="translate(472.23553,814.95507)"
             style="fill:#666666">
            <g
               id="g3741"
               style="fill:#666666">
              <path
                 id="path3743"
                 d="M 82.32,87.06 H 17.68 C 12.067,87.06 7.5,82.493 7.5,76.88 V 23.12 c 0,-5.613 4.566,-10.18 10.18,-10.18 h 64.64 c 5.613,0 10.18,4.567 10.18,10.18 v 53.76 c 0,5.613 -4.566,10.18 -10.18,10.18 z M 17.68,17.94 c -2.856,0 -5.18,2.324 -5.18,5.18 v 53.76 c 0,2.856 2.323,5.18 5.18,5.18 h 64.64 c 2.856,0 5.18,-2.324 5.18,-5.18 V 23.12 c 0,-2.856 -2.323,-5.18 -5.18,-5.18 H 17.68 z"
                 inkscape:connector-curvature="0"
                 style="fill:#666666" />
            </g>
            <path
               id="path3745"
               d="M 19.7,24.18 V 69.1 H 81.26 V 24.18 H 19.7 z m 58.56,3 V 45.14 H 64.794 c -0.646,0 -1.22,0.414 -1.423,1.026 l -3.565,10.713 -8.953,-25.62 c -0.21,-0.602 -0.778,-1.005 -1.416,-1.005 h -10e-4 c -0.639,0 -1.206,0.405 -1.416,1.007 l -6.691,19.247 -4.184,-11.73 c -0.213,-0.597 -0.794,-1.034 -1.413,-0.996 -0.633,0 -1.197,0.397 -1.412,0.993 l -2.285,6.364 H 22.7 V 27.18 H 78.26 z M 22.7,66.1 V 48.14 h 10.389 c 0.633,0 1.198,-0.397 1.412,-0.993 l 1.226,-3.413 4.206,11.794 c 0.213,0.598 0.779,0.996 1.413,0.996 0.002,0 0.004,0 0.006,0 0.637,-0.002 1.202,-0.406 1.411,-1.007 l 6.678,-19.206 8.983,25.708 c 0.211,0.603 0.778,1.005 1.416,1.005 0.004,0 0.008,0 0.011,0 0.643,-0.005 1.21,-0.417 1.412,-1.026 L 65.876,48.139 H 78.26 V 66.1 H 22.7 z"
               inkscape:connector-curvature="0"
               style="fill:#666666" />
            <g
               id="g3747"
               style="fill:#666666">
              <circle
                 id="circle3749"
                 r="2.8800001"
                 cy="74.877998"
                 cx="67.440002"
                 sodipodi:cx="67.440002"
                 sodipodi:cy="74.877998"
                 sodipodi:rx="2.8800001"
                 sodipodi:ry="2.8800001"
                 d="m 70.320003,74.877998 c 0,1.59058 -1.28942,2.88 -2.880001,2.88 -1.59058,0 -2.88,-1.28942 -2.88,-2.88 0,-1.59058 1.28942,-2.88 2.88,-2.88 1.590581,0 2.880001,1.28942 2.880001,2.88 z"
                 style="fill:#666666" />
            </g>
            <g
               id="g3751"
               style="fill:#666666">
              <circle
                 id="circle3753"
                 r="2.8800001"
                 cy="74.877998"
                 cx="76.879997"
                 sodipodi:cx="76.879997"
                 sodipodi:cy="74.877998"
                 sodipodi:rx="2.8800001"
                 sodipodi:ry="2.8800001"
                 d="m 79.759997,74.877998 c 0,1.59058 -1.28942,2.88 -2.88,2.88 -1.59058,0 -2.88,-1.28942 -2.88,-2.88 0,-1.59058 1.28942,-2.88 2.88,-2.88 1.59058,0 2.88,1.28942 2.88,2.88 z"
                 style="fill:#666666" />
            </g>
            <g
               id="g3755"
               style="fill:#666666">
              <circle
                 id="circle3757"
                 r="2.8800001"
                 cy="74.877998"
                 cx="58"
                 sodipodi:cx="58"
                 sodipodi:cy="74.877998"
                 sodipodi:rx="2.8800001"
                 sodipodi:ry="2.8800001"
                 d="m 60.88,74.877998 c 0,1.59058 -1.28942,2.88 -2.88,2.88 -1.59058,0 -2.88,-1.28942 -2.88,-2.88 0,-1.59058 1.28942,-2.88 2.88,-2.88 1.59058,0 2.88,1.28942 2.88,2.88 z"
                 style="fill:#666666" />
            </g>
          </g>
          <g
             id="g3872"
             transform="matrix(0.82625373,0,0,0.82625373,253.43645,903.22945)"
             style="fill:#666666">
            <polygon
               id="polygon3860"
               points="0,50 0,37.5 50,50 100,37.5 100,50 50,62.5 "
               style="fill:#666666" />
            <polygon
               id="polygon3862"
               points="0,75 0,62.5 50,75 100,62.5 100,75 50,87.5 "
               style="fill:#666666" />
            <polygon
               id="polygon3864"
               points="0,25 0,12.5 50,0 100,12.5 100,25 50,37.5 "
               style="fill:#666666" />
          </g>
          <path
             class="dotted-movement"
             style="fill:none;stroke:#666666;stroke-width:2;stroke-linecap:round;stroke-linejoin:miter;stroke-miterlimit:4;stroke-opacity:1;stroke-dasharray:6, 6;stroke-dashoffset:0"
             d="m 113.52777,956.87896 86.26702,0 0,-14.60484 73.53911,0"
             id="path3879"
             inkscape:connector-curvature="0" />
          <path
             class="dotted-movement"
             style="fill:none;stroke:#666666;stroke-width:2;stroke-linecap:round;stroke-linejoin:miter;stroke-miterlimit:4;stroke-opacity:1;stroke-dasharray:6, 6;stroke-dashoffset:0;marker-start:none"
             d="m 172.14459,895.02952 0,24.07684 81.97611,0"
             id="path3881"
             inkscape:connector-curvature="0" />
          <path
             class="dotted-movement"
             style="fill:none;stroke:#666666;stroke-width:2;stroke-linecap:round;stroke-linejoin:miter;stroke-miterlimit:4;stroke-opacity:1;stroke-dasharray:6, 6;stroke-dashoffset:0"
             d="m 479.80908,864.95508 -93.33809,0 0,76.16042 -53.74012,0"
             id="path3883"
             inkscape:connector-curvature="0" />
          <path
             class="dotted-movement"
             style="fill:none;stroke:#666666;stroke-width:2;stroke-linecap:round;stroke-linejoin:miter;stroke-miterlimit:4;stroke-opacity:1;stroke-dasharray:6, 6;stroke-dashoffset:0"
             d="m 448.69638,1007.7907 -90.04233,0 0,-47.11327 -30.01411,0"
             id="path3885"
             inkscape:connector-curvature="0" />
          <g
             transform="matrix(1.2986592,-0.36010925,1.4184135,0.37670867,-49.106787,678.09159)"
             style="font-size:27.87123489px;font-style:normal;font-weight:bold;line-height:125%;letter-spacing:0px;word-spacing:0px;fill:#ffffff;fill-opacity:1;stroke:none;font-family:Sans;-inkscape-font-specification:Sans Bold"
             id="text4858">
            <path
               d="m -211.98672,420.5907 0.7573,8.33231 11.66969,-8.47059 c 0,0 4.08684,-0.0857 4.68948,0.0959 l -12.41837,9.3928 12.95709,13.80653 -9.54543,-2.22023 -7.58745,-7.43191 1.09515,7.49474 -7.11818,-0.44524 -1.09487,-21.03037"
               id="path4863"
               inkscape:connector-curvature="0"
               sodipodi:nodetypes="ccccccccccc" />
          </g>
        </g>
        <style
           id="style3053"
           type="text/css">

        .st0{fill:#FFFFFF;}

      </style>
      </svg>
