<?xml version="1.0" encoding="UTF-8" standalone="no"?>
<!-- Generator: Adobe Illustrator 16.0.0, SVG Export Plug-In . SVG Version: 6.00 Build 0)  -->

<svg
   xmlns:dc="http://purl.org/dc/elements/1.1/"
   xmlns:cc="http://creativecommons.org/ns#"
   xmlns:rdf="http://www.w3.org/1999/02/22-rdf-syntax-ns#"
   xmlns:svg="http://www.w3.org/2000/svg"
   xmlns="http://www.w3.org/2000/svg"
   xmlns:sodipodi="http://sodipodi.sourceforge.net/DTD/sodipodi-0.dtd"
   xmlns:inkscape="http://www.inkscape.org/namespaces/inkscape"
   version="1.1"
   id="Ebene_1"
   x="0px"
   y="0px"
   width="200"
   height="170"
   viewBox="7.033 2 200 170"
   enable-background="new 7.033 2 83.933 100"
   xml:space="preserve"
   inkscape:version="0.48.5 r10040"
   sodipodi:docname="planetmetis.svg"><metadata
     id="metadata15"><rdf:RDF><cc:Work
         rdf:about=""><dc:format>image/svg+xml</dc:format><dc:type
           rdf:resource="http://purl.org/dc/dcmitype/StillImage" /></cc:Work></rdf:RDF></metadata><defs
     id="defs13" /><sodipodi:namedview
     pagecolor="#ffffff"
     bordercolor="#666666"
     borderopacity="1"
     objecttolerance="10"
     gridtolerance="10"
     guidetolerance="10"
     inkscape:pageopacity="0"
     inkscape:pageshadow="2"
     inkscape:window-width="939"
     inkscape:window-height="659"
     id="namedview11"
     showgrid="false"
     inkscape:zoom="1.6600621"
     inkscape:cx="165.17161"
     inkscape:cy="105.1927"
     inkscape:window-x="0"
     inkscape:window-y="0"
     inkscape:window-maximized="0"
     inkscape:current-layer="g3" /><g
     id="g3"
     transform="translate(0,70)"><path
       d="m 61.81209,24.934353 c 0,-7.612365 -6.194427,-13.812058 -13.812058,-13.812058 -7.611049,0 -13.812059,6.199693 -13.812059,13.812058 0,7.616315 6.20101,13.813375 13.812059,13.813375 7.620263,0 13.812058,-6.194427 13.812058,-13.813375 z m -22.09587,0 c 0,-4.569789 3.720606,-8.283812 8.283812,-8.283812 4.569789,0 8.287761,3.714023 8.287761,8.283812 0,4.569788 -3.717972,8.290395 -8.287761,8.290395 -4.564523,0 -8.283812,-3.71929 -8.283812,-8.290395 z"
       id="path5"
       inkscape:connector-curvature="0"
       style="fill:#666666" /><path
       d="m 50.767446,55.321934 c -6.094368,0 -11.053859,4.956859 -11.053859,11.051227 l 0,0 0,0 c 0,6.094368 4.959491,11.051227 11.053859,11.051227 l 0,0 c 6.090418,0 11.047277,-4.956859 11.047277,-11.051227 0,-6.094368 -4.956859,-11.051227 -11.047277,-11.051227 z m 0,16.574206 c -3.046526,0 -5.526929,-2.476454 -5.526929,-5.522979 0,-3.046527 2.480403,-5.52693 5.526929,-5.52693 3.043893,0 5.52298,2.480403 5.52298,5.52693 0,3.046525 -2.479087,5.522979 -5.52298,5.522979 z"
       id="path7"
       inkscape:connector-curvature="0"
       style="fill:#666666" /><path
       d="M 41.232989,3.1003057 33.685673,-9.0007165 80.46258,-35.430191 64.345785,-62.472642 12.792387,-33.283653 27.53206,-8.6294459 28.9105,-6.2372516 36.480199,5.9124835 m 8.517359,-7.3894403 C 30.00981,8.4143799 19.794737,25.306802 19.794737,44.568112 c 0,30.467892 24.786926,55.24824 55.250867,55.24824 3.869378,0 7.64528,-0.400235 11.290841,-1.159891 0.02765,-0.004 0.05003,-0.0079 0.07373,-0.01185 12.230866,-2.556772 23.362405,-9.314687 31.338145,-19.01907 2.81217,-3.421746 5.18461,-7.155518 7.08179,-11.109155 0.0302,-0.05793 0.054,-0.115857 0.0777,-0.169837 0.13824,-0.289644 0.2778,-0.575338 0.4055,-0.866299 0.14219,-0.301492 0.2778,-0.614834 0.40946,-0.921593 0.0157,-0.0316 0.0302,-0.06188 0.0421,-0.09347 2.30267,-5.309697 3.79171,-11.043327 4.31569,-17.052119 0.003,-0.04476 0.008,-0.0882 0.0119,-0.13429 0.0302,-0.315975 0.0501,-0.631949 0.0737,-0.946608 0.008,-0.146138 0.0197,-0.288328 0.0276,-0.438416 0.0197,-0.254096 0.0342,-0.509509 0.0421,-0.764922 0.008,-0.230398 0.0159,-0.466063 0.0276,-0.697779 0.003,-0.189584 0.0119,-0.373904 0.0157,-0.563488 0.0159,-0.431832 0.0237,-0.863665 0.0237,-1.303397 -0.009,-0.427883 -0.0171,-0.863665 -0.029,-1.295497 -0.003,-0.189586 -0.0119,-0.377855 -0.0157,-0.56349 -0.0119,-0.235665 -0.0197,-0.466063 -0.0276,-0.697777 -0.0119,-0.258047 -0.0276,-0.51346 -0.0421,-0.767557 -0.008,-0.142189 -0.0197,-0.289644 -0.0276,-0.435781 -0.0237,-0.315976 -0.0421,-0.6359 -0.0737,-0.953192 -0.003,-0.04082 -0.008,-0.08426 -0.0119,-0.127707 -0.52399,-6.012741 -2.01696,-11.752954 -4.31963,-17.065284 -0.0119,-0.0158 -0.0197,-0.0316 -0.0276,-0.05003 -0.13561,-0.318608 -0.28175,-0.642483 -0.42789,-0.959774 -0.11586,-0.258047 -0.23566,-0.51346 -0.35547,-0.763606 -0.0421,-0.09347 -0.0843,-0.183002 -0.12771,-0.271212 -1.89716,-3.949688 -4.26565,-7.68346 -7.07783,-11.1012561 -7.97705,-9.70439319 -19.107268,-16.4623089 -31.338135,-19.0190735 -0.01975,-0.00395 -0.03423,-0.00395 -0.05003,-0.00789 -3.656094,-0.7649234 -7.435945,-1.1651584 -11.313221,-1.1651584 -9.226471,0 -19.220339,3.2676878 -26.873518,7.2832037 M 20.338924,-31.256146 62.32881,-54.926105 72.918676,-37.448481 30.931424,-13.783788 z M 83.966632,93.487629 c -2.89907,0.527941 -5.881085,0.805737 -8.923661,0.805737 -27.416099,0 -49.722619,-22.305204 -49.722619,-49.72657 0,-17.952647 9.56351,-33.710585 23.860063,-42.4551932 l 2.206559,-1.27311622 c 7.042294,-3.81803188 15.099657,-5.99299318 23.65863,-5.99299318 3.043893,0 6.021958,0.2777947 8.918395,0.8017866 6.124649,12.7061457 9.66752,27.732075 10.310002,43.700663 -6.016691,1.277065 -10.599646,6.48407 -10.91957,12.798304 -0.01185,0.235665 -0.01975,0.470013 -0.01975,0.709628 0,0.235664 0.0079,0.470012 0.01975,0.705677 0.289644,5.712565 4.069495,10.50617 9.23437,12.326975 C 90.864104,75.926 87.966349,85.191968 83.966632,93.487629 z m 13.176159,-32.34136 c -0.235665,0 -0.470014,-0.01975 -0.705677,-0.03818 -0.08426,-0.0079 -0.173787,-0.0158 -0.261996,-0.03028 -4.115575,-0.477912 -7.317456,-3.983919 -7.317456,-8.2193 0,-4.567157 3.714023,-8.28513 8.285129,-8.28513 0,0 0,0 0.004,-0.004 0.177737,0.004 0.351522,0.01975 0.523992,0.02765 0.115857,0.0079 0.219867,0.0079 0.327824,0.01975 0.173786,0.0158 0.339673,0.05003 0.50951,0.07767 0.107957,0.01975 0.211967,0.02765 0.312025,0.05003 0.165887,0.03423 0.327824,0.08162 0.489762,0.121124 0.100063,0.03291 0.204066,0.05003 0.304125,0.08163 0.157988,0.05003 0.308077,0.114541 0.459481,0.169837 0.10006,0.04081 0.20407,0.06978 0.29754,0.110585 0.14614,0.06187 0.28965,0.136923 0.42394,0.205384 0.10006,0.04476 0.20406,0.09216 0.30149,0.142188 0.12771,0.07242 0.2541,0.152722 0.3739,0.230399 0.10401,0.06582 0.20407,0.121123 0.30413,0.186952 0.0158,0.01185 0.0316,0.02765 0.0461,0.03687 0.10006,0.07109 0.19617,0.147455 0.29359,0.221182 0.0974,0.07373 0.20012,0.140873 0.2936,0.218549 0.11191,0.09347 0.21591,0.197485 0.32782,0.301494 0.0843,0.07504 0.17774,0.147455 0.25805,0.233032 0.10795,0.110585 0.20406,0.223814 0.30807,0.335722 0.0737,0.08426 0.15404,0.165888 0.21987,0.250147 0.104,0.123757 0.19222,0.247514 0.28569,0.373904 0.0658,0.08821 0.13166,0.173786 0.19617,0.265946 0.0882,0.13034 0.16983,0.276478 0.25014,0.412084 0.054,0.08821 0.11981,0.173786 0.16589,0.268579 0.0777,0.143505 0.14219,0.29886 0.21592,0.45158 0.0395,0.09216 0.0922,0.181686 0.12902,0.273845 0.0645,0.154039 0.11849,0.315975 0.17642,0.473963 0.0342,0.09611 0.0711,0.189585 0.104,0.289644 0.0461,0.165887 0.0882,0.335723 0.12771,0.50161 0.0276,0.100063 0.054,0.192219 0.0737,0.289645 0.0421,0.196167 0.0658,0.389702 0.0922,0.589819 0.0119,0.07767 0.0303,0.150089 0.0382,0.231715 0.0277,0.281745 0.0395,0.559539 0.0395,0.849183 0.0158,4.567156 -3.70217,8.285129 -8.273274,8.285129 z"
       id="path9"
       inkscape:connector-curvature="0"
       sodipodi:nodetypes="cccccccccssccsccccccccccccccccccccccccccccscccccccssccscccscccsccscccccccccccccccsccccccccccccccccccs"
       style="fill:#666666" /><g
       transform="matrix(1.1363332,-0.66489401,0.66489401,1.1363332,1.2166592,-31.598123)"
       style="font-size:12.33950424px;font-style:normal;font-weight:normal;line-height:125%;letter-spacing:0px;word-spacing:0px;fill:#666666;fill-opacity:1;stroke:none;font-family:Sans"
       id="text3012"><path
         d="m 15.735006,11.154573 1.81357,0 2.295582,6.121551 2.307632,-6.121551 1.813569,0 0,8.995547 -1.186954,0 0,-7.89897 -2.319682,6.169752 -1.223105,0 -2.319682,-6.169752 0,7.89897 -1.18093,0 0,-8.995547"
         id="path3123"
         inkscape:connector-curvature="0" /><path
         d="m 32.11136,16.49888 0,0.542263 -5.097275,0 c 0.0482,0.763188 0.277155,1.345618 0.686867,1.747293 0.413724,0.397661 0.988121,0.596491 1.723192,0.59649 0.425773,1e-6 0.837491,-0.05222 1.235156,-0.156654 0.40167,-0.104435 0.79933,-0.261089 1.192979,-0.469962 l 0,1.048376 c -0.397666,0.168705 -0.805367,0.297241 -1.223105,0.38561 -0.417749,0.08837 -0.841517,0.132553 -1.271306,0.132553 -1.076497,0 -1.930059,-0.313307 -2.560689,-0.939923 -0.626616,-0.626614 -0.939923,-1.474151 -0.939923,-2.542613 0,-1.104606 0.29724,-1.98026 0.891722,-2.626965 0.598496,-0.650709 1.403857,-0.976067 2.416085,-0.976074 0.907784,7e-6 1.624776,0.293231 2.150978,0.879672 0.530206,0.582437 0.795313,1.375747 0.795319,2.379934 m -1.108627,-0.325358 c -0.008,-0.606527 -0.178752,-1.090547 -0.512137,-1.452061 -0.32938,-0.361503 -0.767207,-0.542257 -1.313483,-0.542263 -0.618585,6e-6 -1.114655,0.174735 -1.488212,0.524187 -0.369544,0.349464 -0.582433,0.841518 -0.638665,1.476162 l 3.952497,-0.006"
         id="path3125"
         inkscape:connector-curvature="0" /><path
         d="m 35.027532,11.485956 0,1.915997 2.283532,0 0,0.861597 -2.283532,0 0,3.66329 c -2e-6,0.550299 0.07431,0.903774 0.222931,1.060426 0.152634,0.156655 0.459917,0.234982 0.921848,0.234981 l 1.138753,0 0,0.927873 -1.138753,0 c -0.855574,0 -1.446038,-0.158662 -1.771394,-0.475987 -0.325359,-0.32134 -0.488038,-0.903771 -0.488037,-1.747293 l 0,-3.66329 -0.813395,0 0,-0.861597 0.813395,0 0,-1.915997 1.114652,0"
         id="path3127"
         inkscape:connector-curvature="0" /><path
         d="m 38.775175,13.401953 1.108627,0 0,6.748167 -1.108627,0 0,-6.748167 m 0,-2.626964 1.108627,0 0,1.403859 -1.108627,0 0,-1.403859"
         id="path3129"
         inkscape:connector-curvature="0" /><path
         d="m 46.499416,13.600783 0,1.048376 c -0.313313,-0.160665 -0.638671,-0.281168 -0.976074,-0.361509 -0.337413,-0.08033 -0.686871,-0.120497 -1.048376,-0.120503 -0.5503,6e-6 -0.964026,0.08436 -1.241181,0.253057 -0.273142,0.168709 -0.409712,0.421765 -0.40971,0.759168 -2e-6,0.257078 0.09841,0.459924 0.295232,0.60854 0.19682,0.144608 0.592471,0.283186 1.186955,0.415735 l 0.379584,0.08435 c 0.787282,0.168707 1.345612,0.407705 1.674991,0.716992 0.333386,0.305277 0.500082,0.733062 0.500088,1.283357 -6e-6,0.626617 -0.249045,1.122687 -0.747119,1.488212 -0.494067,0.365525 -1.174908,0.548288 -2.042525,0.548288 -0.361512,0 -0.739087,-0.03615 -1.132728,-0.108453 -0.389628,-0.06828 -0.801346,-0.17272 -1.235156,-0.313307 l 0,-1.144779 c 0.409709,0.21289 0.813394,0.373561 1.211055,0.482012 0.397658,0.104437 0.791301,0.156655 1.180929,0.156654 0.522176,1e-6 0.923853,-0.08837 1.20503,-0.265106 0.281169,-0.180754 0.421756,-0.43381 0.421761,-0.759169 -5e-6,-0.301255 -0.102433,-0.532219 -0.307283,-0.692892 -0.200842,-0.160668 -0.644695,-0.315313 -1.331558,-0.463937 l -0.385609,-0.09038 c -0.686869,-0.1446 -1.182939,-0.365522 -1.488212,-0.662766 -0.305275,-0.301254 -0.457912,-0.712972 -0.457911,-1.235156 -10e-7,-0.634643 0.224938,-1.124688 0.674816,-1.470136 0.449876,-0.345435 1.088541,-0.518156 1.915998,-0.518163 0.409706,7e-6 0.795315,0.03013 1.156828,0.09038 0.361504,0.06026 0.694895,0.150635 1.000175,0.271131"
         id="path3131"
         inkscape:connector-curvature="0" /></g><g
       id="g3084"
       transform="matrix(0.86204752,0.91861216,-0.91861216,0.86204752,172.55496,-123.2746)"
       style="fill:#666666"><path
         id="path3086"
         d="m 49.817407,28.822822 c -2.577783,0 -4.674722,2.096227 -4.674722,4.67401 0,2.577073 2.096939,4.674011 4.674722,4.674011 2.577783,0 4.674722,-2.096938 4.674722,-4.674011 0,-2.577072 -2.096939,-4.67401 -4.674722,-4.67401 z m 0,6.777351 c -1.159433,0 -2.10334,-0.943907 -2.10334,-2.102629 0,-1.159434 0.943907,-2.104052 2.10334,-2.104052 1.159434,0 2.104052,0.94533 2.104052,2.104052 0,1.158722 -0.944618,2.102629 -2.104052,2.102629 z"
         inkscape:connector-curvature="0"
         style="fill:#666666" /><path
         id="path3088"
         d="M 66.402,50.213 C 66.35,50.131 66.289,50.06 66.227,49.989 65.375,29.288 52.921,16.382 51.232,14.724 c -0.703,-0.688 -1.828,-0.688 -2.531,0 -1.692,1.66 -14.18,14.602 -15,35.355 -0.035,0.045 -0.074,0.084 -0.105,0.134 -0.33,0.521 -8.048,12.965 -6.468,31.026 0.074,0.844 0.721,1.521 1.559,1.633 0.081,0.012 0.163,0.017 0.243,0.017 0.747,0 1.428,-0.464 1.693,-1.179 1.291,-3.479 3.856,-8.999 6.218,-11.803 0.731,1.618 1.604,3.164 2.627,4.62 0.252,0.356 0.624,0.611 1.049,0.715 1.65,0.405 3.326,0.698 5.014,0.885 0.559,3.37 1.452,6.602 2.854,9.136 0.319,0.574 0.924,0.931 1.582,0.931 0.658,0 1.264,-0.356 1.582,-0.931 1.404,-2.537 2.297,-5.774 2.855,-9.149 1.688,-0.186 3.363,-0.467 5.013,-0.871 0.425,-0.104 0.797,-0.358 1.049,-0.715 1.034,-1.471 1.914,-3.033 2.649,-4.669 2.371,2.786 4.961,8.352 6.261,11.853 0.267,0.714 0.947,1.178 1.694,1.178 0.08,0 0.161,-0.005 0.242,-0.017 0.838,-0.112 1.485,-0.789 1.559,-1.633 1.581,-18.062 -6.14,-30.507 -6.469,-31.027 z m -35.74,22.633 c 0.435,-6.186 1.911,-11.326 3.29,-14.938 0.194,1.893 0.479,3.831 0.889,5.826 0.172,0.835 0.384,1.652 0.622,2.458 -1.773,1.548 -3.437,4.107 -4.801,6.654 z m 19.305,6.693 c -2.162,-7.536 -1.685,-18.124 -1.466,-21.432 0.437,-0.163 0.971,-0.305 1.466,-0.305 0.467,0 1.014,0.152 1.467,0.317 0.219,3.326 0.692,13.894 -1.467,21.42 z m 7.924,-7.651 c -0.99,0.224 -1.994,0.383 -3,0.518 0.766,-7.748 0.111,-15.167 0.065,-15.656 -0.055,-0.592 -0.397,-1.123 -0.918,-1.412 -0.211,-0.116 -2.113,-1.151 -4.071,-1.151 -2.059,0 -3.903,1.053 -4.106,1.173 -0.501,0.295 -0.829,0.812 -0.882,1.391 -0.045,0.49 -0.701,7.916 0.067,15.668 -1.008,-0.135 -2.01,-0.307 -3.002,-0.529 -1.768,-2.665 -2.999,-5.65 -3.662,-8.881 -4.834,-23.543 7.291,-39.568 11.586,-44.365 4.295,4.797 16.421,20.822 11.587,44.365 -0.665,3.228 -1.896,6.214 -3.664,8.879 z m 6.594,-5.742 c 0.232,-0.792 0.439,-1.593 0.608,-2.412 0.419,-2.043 0.707,-4.026 0.9,-5.963 1.395,3.619 2.904,8.809 3.345,15.075 -1.377,-2.573 -3.062,-5.158 -4.853,-6.7 z"
         inkscape:connector-curvature="0"
         style="fill:#666666" /></g><g
       transform="matrix(0.96176776,0.89907721,-0.89907721,0.96176776,1.2166592,-31.598123)"
       style="font-size:6.41077709px;font-style:normal;font-weight:bold;line-height:125%;letter-spacing:0px;word-spacing:0px;fill:#666666;fill-opacity:1;stroke:none;font-family:Sans;-inkscape-font-specification:Sans Bold"
       id="text3099"><path
         d="m 83.646793,-94.679494 1.205151,0 0,1.78112 1.777989,0 0,-1.78112 1.205151,0 0,4.673482 -1.205151,0 0,-1.981456 -1.777989,0 0,1.981456 -1.205151,0 0,-4.673482"
         id="path3134"
         inkscape:connector-curvature="0" /><path
         d="m 88.461137,-94.679494 4.30724,0 0,0.910907 -1.549479,0 0,3.762575 -1.205151,0 0,-3.762575 -1.55261,0 0,-0.910907"
         id="path3136"
         inkscape:connector-curvature="0" /><path
         d="m 92.981236,-94.679494 4.307241,0 0,0.910907 -1.54948,0 0,3.762575 -1.205151,0 0,-3.762575 -1.55261,0 0,-0.910907"
         id="path3138"
         inkscape:connector-curvature="0" /><path
         d="m 97.908268,-94.679494 2.000237,0 c 0.594745,5e-6 1.050725,0.132519 1.367925,0.397544 0.31928,0.262946 0.47893,0.638577 0.47893,1.126894 0,0.490411 -0.15965,0.868129 -0.47893,1.133155 -0.3172,0.262944 -0.77318,0.394415 -1.367925,0.394413 l -0.795086,0 0,1.621476 -1.205151,0 0,-4.673482 m 1.205151,0.873344 0,1.305319 0.666746,0 c 0.233725,3e-6 0.414235,-0.05634 0.541535,-0.169034 0.12729,-0.114774 0.19094,-0.276504 0.19095,-0.485191 -10e-6,-0.208681 -0.0637,-0.369367 -0.19095,-0.48206 -0.1273,-0.112686 -0.30781,-0.169031 -0.541535,-0.169034 l -0.666746,0"
         id="path3140"
         inkscape:connector-curvature="0" /></g></g></svg>